Coordinates
version=1
nRows=24
nColumns=33
inDegrees=yes

Units are S.I. units (second, meters, Newtons, ...)
Angles are in degrees.

endheader
time	ground_thorax_rot_x	ground_thorax_rot_y	ground_thorax_rot_z	ground_thorax_tx	ground_thorax_ty	ground_thorax_tz	clav_prot_r	clav_elev_r	scapula_abduction_r	scapula_elevation_r	scapula_upward_rot_r	scapula_winging_r	shoulder_elv_r	plane_of_elev_r	axial_rot_r	elbow_flexion_r	pro_sup_r	wrist_flex_r	wrist_dev_r	clav_prot_l	clav_elev_l	scapula_abduction_l	scapula_elevation_l	scapula_upward_rot_l	scapula_winging_l	shoulder_elv_l	plane_of_elev_l	axial_rot_l	elbow_flexion_l	pro_sup_l	wrist_flex_l	wrist_dev_l	
1.3400	1.954633	0.933744	0.156332	-0.152917	0.990291	0.002631	-4.939932	3.024096	-3.275536	6.786020	8.093480	-2.961609	49.258057	-44.493657	59.160635	73.854520	-19.522900	35.235049	-13.944838	-4.060809	2.343083	1.907671	-6.529877	4.094339	1.854898	39.255440	-53.396492	-30.110795	75.859744	12.573486	-23.459732	-24.999998	
1.3500	1.707936	1.130288	0.123261	-0.152686	0.990383	0.002780	-5.122250	2.748590	-3.713695	6.671529	7.737313	-2.767236	49.146860	-44.565120	58.758424	74.123278	-18.254489	35.674551	-13.986012	-3.983323	2.589990	1.604041	-6.578556	4.545144	2.046174	39.016603	-53.705785	-30.560980	75.622877	11.539673	-24.253502	-24.999996	
1.3600	1.459591	1.348337	0.098412	-0.152442	0.990480	0.002922	-5.318062	2.458207	-4.180420	6.549517	7.365350	-2.562248	49.046040	-44.648834	58.315836	74.373248	-16.938729	36.124563	-14.040274	-3.906608	2.837338	1.288832	-6.618243	5.020187	2.245140	38.768164	-54.005836	-31.020297	75.391499	10.467881	-25.098662	-24.999993	
1.3700	1.314097	1.469755	0.063947	-0.152221	0.990516	0.003049	-5.464561	2.283450	-4.507062	6.471117	7.153390	-2.432914	48.930031	-44.705686	58.028024	74.662240	-16.243311	36.354542	-14.096779	-3.881479	2.943012	1.167613	-6.634494	5.224826	2.327402	38.617225	-54.162875	-31.203261	75.248334	9.918630	-25.632291	-24.999988	
1.3800	1.229102	1.548701	0.025995	-0.152024	0.990524	0.003157	-5.587637	2.164122	-4.763558	6.411330	7.023965	-2.342033	48.816148	-44.747188	57.805399	74.947611	-15.886863	36.456281	-14.165448	-3.884157	2.960748	1.148246	-6.628573	5.281287	2.345734	38.520532	-54.217781	-31.226881	75.166293	9.662373	-26.020584	-24.999979	
1.3900	1.198889	1.601273	-0.038175	-0.151841	0.990512	0.003252	-5.700009	2.078736	-4.975845	6.357392	6.959104	-2.277989	48.708580	-44.767506	57.604281	75.224581	-15.831163	36.428837	-14.267329	-3.908491	2.885145	1.214898	-6.593800	5.194161	2.303901	38.479574	-54.148431	-31.083453	75.144944	9.682510	-26.337380	-24.999962	
1.4000	1.197781	1.648934	-0.117164	-0.151683	0.990491	0.003334	-5.808859	2.000023	-5.171363	6.300970	6.916166	-2.223255	48.619149	-44.767463	57.396819	75.469926	-15.917470	36.326333	-14.398044	-3.938552	2.751072	1.315927	-6.537613	5.025801	2.230766	38.474095	-53.986445	-30.841083	75.168009	9.859666	-26.660425	-24.999933	
1.4100	1.203518	1.712012	-0.218271	-0.151524	0.990466	0.003421	-5.931567	1.899368	-5.396816	6.232980	6.850908	-2.155399	48.560817	-44.741827	57.137667	75.686295	-16.017402	36.177564	-14.572465	-3.959463	2.575951	1.418983	-6.468626	4.794907	2.139332	38.502648	-53.738058	-30.512616	75.224103	10.135862	-27.116188	-24.999880	
1.4200	1.212667	1.780545	-0.307607	-0.151382	0.990420	0.003503	-6.053536	1.792618	-5.632152	6.168972	6.760921	-2.079748	48.545521	-44.694461	56.875440	75.863801	-16.091037	36.009036	-14.758217	-3.968576	2.381806	1.518653	-6.401258	4.515869	2.036531	38.556842	-53.440475	-30.133082	75.311130	10.488022	-27.658260	-24.999785	
1.4300	1.229332	1.854589	-0.389747	-0.151232	0.990357	0.003589	-6.181769	1.678681	-5.899955	6.115002	6.627817	-1.987278	48.601035	-44.613784	56.607695	76.026928	-16.097883	35.817085	-14.956838	-3.957272	2.157985	1.619907	-6.344507	4.141095	1.909946	38.652460	-53.077426	-29.663774	75.421782	10.972782	-28.356421	-24.999615	
1.4400	1.252797	1.924887	-0.435867	-0.151087	0.990258	0.003667	-6.302018	1.575456	-6.172197	6.081952	6.466176	-1.889082	48.728403	-44.516382	56.379384	76.170683	-16.002142	35.641276	-15.121262	-3.933729	1.931767	1.718874	-6.302502	3.723509	1.774785	38.761936	-52.702380	-29.165094	75.552378	11.513282	-29.100469	-24.999310	
1.4500	1.283768	1.987764	-0.480667	-0.150920	0.990134	0.003744	-6.424164	1.471109	-6.459224	6.056248	6.282676	-1.783079	48.925873	-44.393061	56.166880	76.319354	-15.796149	35.480828	-15.247894	-3.904019	1.691728	1.824640	-6.266025	3.259972	1.626633	38.882546	-52.304547	-28.609883	75.696573	12.100069	-29.888574	-24.998765	
1.4600	1.325288	2.035822	-0.523206	-0.150744	0.989987	0.003802	-6.538480	1.371475	-6.731958	6.034031	6.101318	-1.681135	49.183439	-44.256305	55.986701	76.463656	-15.467913	35.353983	-15.296158	-3.878948	1.450097	1.932938	-6.225389	2.803808	1.479045	38.983581	-51.923266	-28.041013	75.855761	12.639885	-30.597422	-24.997787	
1.4700	1.377005	2.069928	-0.588820	-0.150551	0.989844	0.003858	-6.653008	1.267873	-6.999453	6.005396	5.926966	-1.581564	49.481981	-44.099390	55.806302	76.621192	-15.052104	35.235410	-15.287715	-3.856631	1.195841	2.043303	-6.175511	2.342311	1.328024	39.073480	-51.546886	-27.439419	76.020915	13.144643	-31.244216	-24.996040	
1.4800	1.438079	2.085671	-0.668753	-0.150334	0.989688	0.003910	-6.762442	1.173972	-7.247082	5.976084	5.777292	-1.492829	49.797048	-43.934736	55.626956	76.795165	-14.570111	35.112067	-15.207457	-3.843171	0.940014	2.154738	-6.115034	1.904929	1.181242	39.140021	-51.212490	-26.824635	76.207186	13.560696	-31.740966	-24.992894	
1.4900	1.503807	2.085372	-0.756031	-0.150076	0.989531	0.003971	-6.872073	1.092742	-7.487091	5.949718	5.649763	-1.412297	50.104831	-43.764574	55.428515	76.992823	-14.068192	34.954066	-15.085670	-3.834567	0.685784	2.268869	-6.052756	1.476493	1.035546	39.195934	-50.922404	-26.189212	76.414764	13.919271	-32.110297	-24.987308	
1.5000	1.589929	2.070202	-0.828214	-0.149786	0.989379	0.004038	-6.977783	1.042829	-7.729749	5.951734	5.523396	-1.335393	50.434287	-43.574871	55.205773	77.219340	-13.494913	34.702155	-14.902827	-3.809934	0.415882	2.369603	-5.996618	0.998030	0.880968	39.257059	-50.682959	-25.496905	76.659471	14.271716	-32.338397	-24.977160	
1.5100	1.682256	2.043238	-0.862858	-0.149472	0.989240	0.004127	-7.077657	1.022130	-7.974976	5.983168	5.390591	-1.260276	50.760971	-43.373739	54.959747	77.468368	-12.894549	34.354873	-14.692576	-3.763354	0.158644	2.449030	-5.967081	0.482963	0.725957	39.331710	-50.497107	-24.790702	76.929825	14.649189	-32.450169	-24.959381	
1.5200	1.764125	2.009171	-0.876551	-0.149142	0.989096	0.004241	-7.171112	1.012236	-8.230078	6.038213	5.223277	-1.176861	51.089610	-43.146121	54.655755	77.754055	-12.222232	33.848985	-14.437830	-3.688154	-0.071325	2.502148	-5.981105	-0.076998	0.572714	39.431490	-50.333813	-24.035329	77.248869	15.085956	-32.383459	-24.926420	
1.5300	1.813066	1.970954	-0.873306	-0.148800	0.988958	0.004373	-7.259336	0.993642	-8.476576	6.088634	5.047590	-1.092166	51.368686	-42.922024	54.303247	78.055722	-11.569816	33.250171	-14.174172	-3.607490	-0.237188	2.539330	-6.035034	-0.588743	0.442122	39.530046	-50.198826	-23.309024	77.598014	15.523952	-32.139981	-24.870487	
1.5400	1.840843	1.929870	-0.878958	-0.148467	0.988845	0.004515	-7.341928	0.959080	-8.716316	6.131427	4.854278	-1.002795	51.623134	-42.678975	53.883609	78.383915	-10.888773	32.515067	-13.875463	-3.511510	-0.373844	2.544539	-6.106670	-1.076948	0.328309	39.620243	-50.073649	-22.550635	77.987752	15.999669	-31.702312	-24.761615	
1.5500	1.841676	1.888548	-0.886094	-0.148150	0.988772	0.004660	-7.417002	0.909895	-8.918962	6.147425	4.695027	-0.926204	51.796234	-42.458642	53.437329	78.706296	-10.313377	31.760982	-13.585787	-3.427180	-0.462472	2.529635	-6.174493	-1.445577	0.249217	39.670257	-49.981459	-21.867350	78.384722	16.426728	-31.133336	-24.591972	
1.5600	1.823878	1.849351	-0.915576	-0.147828	0.988723	0.004794	-7.491930	0.844490	-9.099502	6.136333	4.566586	-0.858734	51.902150	-42.248680	52.943085	79.039367	-9.819879	30.972987	-13.289642	-3.356119	-0.528473	2.505205	-6.228091	-1.727156	0.192533	39.685912	-49.895407	-21.207269	78.804884	16.822789	-30.457100	-24.353635	
1.5700	1.796450	1.813405	-0.960362	-0.147499	0.988700	0.004917	-7.565259	0.775532	-9.247393	6.100518	4.492517	-0.808976	51.916122	-42.063750	52.399961	79.368262	-9.466160	30.172771	-12.981570	-3.302212	-0.577100	2.474280	-6.259800	-1.914819	0.157994	39.664643	-49.813052	-20.602333	79.237383	17.170120	-29.712029	-24.014600	
